<svg width="164" height="48" viewBox="0 0 164 48" fill="none" xmlns="http://www.w3.org/2000/svg">
<rect width="164" height="48" rx="24" fill="white"/>
<g clip-path="url(#clip0)">
<path d="M144.437 20.9921L139.667 25.7621L134.897 20.9921C134.687 20.7897 134.406 20.6777 134.115 20.6803C133.824 20.6828 133.545 20.7997 133.339 21.0057C133.133 21.2117 133.016 21.4904 133.014 21.7817C133.011 22.073 133.123 22.3537 133.326 22.5632L138.881 28.1188C139.089 28.3271 139.372 28.4441 139.667 28.4441C139.961 28.4441 140.244 28.3271 140.452 28.1188L146.008 22.5632C146.114 22.4607 146.199 22.3381 146.257 22.2026C146.315 22.067 146.346 21.9212 146.347 21.7737C146.348 21.6262 146.32 21.4798 146.264 21.3433C146.208 21.2067 146.126 21.0827 146.022 20.9784C145.917 20.874 145.793 20.7915 145.657 20.7357C145.52 20.6798 145.374 20.6517 145.226 20.653C145.079 20.6542 144.933 20.6849 144.797 20.7431C144.662 20.8014 144.539 20.886 144.437 20.9921Z" fill="#8499F0"/>
<g clip-path="url(#clip1)">
<path d="M144.436 20.9922L139.666 25.7622L134.896 20.9922C134.687 20.7898 134.406 20.6778 134.115 20.6803C133.824 20.6829 133.545 20.7997 133.339 21.0057C133.133 21.2117 133.016 21.4904 133.014 21.7817C133.011 22.0731 133.123 22.3537 133.325 22.5633L138.881 28.1189C139.089 28.3272 139.372 28.4442 139.666 28.4442C139.961 28.4442 140.244 28.3272 140.452 28.1189L146.008 22.5633C146.114 22.4608 146.198 22.3382 146.257 22.2026C146.315 22.0671 146.345 21.9213 146.347 21.7738C146.348 21.6262 146.32 21.4799 146.264 21.3434C146.208 21.2068 146.126 21.0827 146.021 20.9784C145.917 20.8741 145.793 20.7916 145.656 20.7357C145.52 20.6799 145.374 20.6517 145.226 20.653C145.078 20.6543 144.933 20.685 144.797 20.7432C144.662 20.8014 144.539 20.8861 144.436 20.9922Z" fill="#8499F0"/>
</g>
</g>
<path d="M19.84 29H18.08L22.992 17.672H24.432L29.296 29H27.504L26.352 26.216H20.976L19.84 29ZM21.536 24.824H25.776L23.664 19.512L21.536 24.824ZM32.207 29H30.703V16.904H32.207V29ZM36.3633 29H34.8593V16.904H36.3633V29ZM46.6955 22.648H44.6795V26.6C44.6795 27.0587 44.7648 27.3893 44.9355 27.592C45.1062 27.784 45.3782 27.88 45.7515 27.88C45.8902 27.88 46.0395 27.864 46.1995 27.832C46.3595 27.8 46.5035 27.752 46.6315 27.688L46.6795 28.92C46.4982 28.984 46.2955 29.032 46.0715 29.064C45.8582 29.1067 45.6342 29.128 45.3995 29.128C44.6848 29.128 44.1355 28.9307 43.7515 28.536C43.3782 28.1413 43.1915 27.5493 43.1915 26.76V22.648H41.7355V21.416H43.1915V19.24H44.6795V21.416H46.6955V22.648ZM52.9691 24.088C52.9691 23.5227 52.7985 23.1067 52.4571 22.84C52.1158 22.5627 51.6625 22.424 51.0971 22.424C50.6705 22.424 50.2651 22.5093 49.8811 22.68C49.5078 22.84 49.1931 23.048 48.9371 23.304L48.1371 22.344C48.5105 21.992 48.9638 21.7147 49.4971 21.512C50.0411 21.3093 50.6225 21.208 51.2411 21.208C51.7851 21.208 52.2545 21.288 52.6491 21.448C53.0545 21.5973 53.3851 21.8053 53.6411 22.072C53.8971 22.3387 54.0891 22.6533 54.2171 23.016C54.3451 23.3787 54.4091 23.768 54.4091 24.184V27.496C54.4091 27.752 54.4145 28.024 54.4251 28.312C54.4465 28.5893 54.4785 28.8187 54.5211 29H53.1611C53.0758 28.6373 53.0331 28.2747 53.0331 27.912H52.9851C52.7078 28.3173 52.3558 28.632 51.9291 28.856C51.5131 29.08 51.0171 29.192 50.4411 29.192C50.1425 29.192 49.8278 29.1493 49.4971 29.064C49.1771 28.9893 48.8838 28.8613 48.6171 28.68C48.3505 28.4987 48.1265 28.2587 47.9451 27.96C47.7745 27.6613 47.6891 27.2933 47.6891 26.856C47.6891 26.28 47.8438 25.8267 48.1531 25.496C48.4625 25.1547 48.8678 24.8987 49.3691 24.728C49.8705 24.5467 50.4358 24.4293 51.0651 24.376C51.6945 24.3227 52.3291 24.296 52.9691 24.296V24.088ZM52.6011 25.384C52.2278 25.384 51.8385 25.4 51.4331 25.432C51.0385 25.464 50.6758 25.528 50.3451 25.624C50.0251 25.72 49.7585 25.864 49.5451 26.056C49.3318 26.248 49.2251 26.504 49.2251 26.824C49.2251 27.048 49.2678 27.2347 49.3531 27.384C49.4491 27.5333 49.5718 27.656 49.7211 27.752C49.8705 27.848 50.0358 27.9173 50.2171 27.96C50.3985 27.992 50.5851 28.008 50.7771 28.008C51.4811 28.008 52.0198 27.8 52.3931 27.384C52.7771 26.9573 52.9691 26.424 52.9691 25.784V25.384H52.6011ZM61.017 23.336C60.8463 23.0587 60.6063 22.8347 60.297 22.664C59.9877 22.4827 59.641 22.392 59.257 22.392C59.0863 22.392 58.9157 22.4133 58.745 22.456C58.5743 22.488 58.4197 22.5467 58.281 22.632C58.153 22.7067 58.0463 22.808 57.961 22.936C57.8863 23.0533 57.849 23.2027 57.849 23.384C57.849 23.704 57.993 23.944 58.281 24.104C58.569 24.2533 59.001 24.392 59.577 24.52C59.9397 24.6053 60.2757 24.7067 60.585 24.824C60.8943 24.9413 61.161 25.0907 61.385 25.272C61.6197 25.4427 61.801 25.6507 61.929 25.896C62.057 26.1413 62.121 26.4293 62.121 26.76C62.121 27.208 62.0357 27.5867 61.865 27.896C61.6943 28.2053 61.465 28.4613 61.177 28.664C60.8997 28.856 60.5797 28.9947 60.217 29.08C59.8543 29.1653 59.481 29.208 59.097 29.208C58.521 29.208 57.9557 29.096 57.401 28.872C56.857 28.648 56.4037 28.3067 56.041 27.848L57.113 26.936C57.3157 27.2347 57.593 27.4853 57.945 27.688C58.3077 27.8907 58.7023 27.992 59.129 27.992C59.321 27.992 59.5023 27.976 59.673 27.944C59.8543 27.9013 60.0143 27.8373 60.153 27.752C60.3023 27.6667 60.4197 27.5547 60.505 27.416C60.5903 27.2773 60.633 27.1013 60.633 26.888C60.633 26.536 60.4623 26.2747 60.121 26.104C59.7903 25.9333 59.2997 25.7733 58.649 25.624C58.393 25.56 58.1317 25.4853 57.865 25.4C57.609 25.304 57.3743 25.176 57.161 25.016C56.9477 24.856 56.7717 24.6587 56.633 24.424C56.505 24.1787 56.441 23.88 56.441 23.528C56.441 23.1227 56.521 22.776 56.681 22.488C56.8517 22.1893 57.0703 21.9493 57.337 21.768C57.6037 21.576 57.9077 21.4373 58.249 21.352C58.5903 21.256 58.9423 21.208 59.305 21.208C59.849 21.208 60.3717 21.3147 60.873 21.528C61.385 21.7413 61.7797 22.0507 62.057 22.456L61.017 23.336ZM65.5664 24.712H65.6144L68.7984 21.416H70.8144L67.2624 24.856L71.1184 29H69.0384L65.6144 25.064H65.5664V29H64.0624V16.904H65.5664V24.712ZM76.4701 23.336C76.2995 23.0587 76.0595 22.8347 75.7501 22.664C75.4408 22.4827 75.0941 22.392 74.7101 22.392C74.5395 22.392 74.3688 22.4133 74.1981 22.456C74.0275 22.488 73.8728 22.5467 73.7341 22.632C73.6061 22.7067 73.4995 22.808 73.4141 22.936C73.3395 23.0533 73.3021 23.2027 73.3021 23.384C73.3021 23.704 73.4461 23.944 73.7341 24.104C74.0221 24.2533 74.4541 24.392 75.0301 24.52C75.3928 24.6053 75.7288 24.7067 76.0381 24.824C76.3475 24.9413 76.6141 25.0907 76.8381 25.272C77.0728 25.4427 77.2541 25.6507 77.3821 25.896C77.5101 26.1413 77.5741 26.4293 77.5741 26.76C77.5741 27.208 77.4888 27.5867 77.3181 27.896C77.1475 28.2053 76.9181 28.4613 76.6301 28.664C76.3528 28.856 76.0328 28.9947 75.6701 29.08C75.3075 29.1653 74.9341 29.208 74.5501 29.208C73.9741 29.208 73.4088 29.096 72.8541 28.872C72.3101 28.648 71.8568 28.3067 71.4941 27.848L72.5661 26.936C72.7688 27.2347 73.0461 27.4853 73.3981 27.688C73.7608 27.8907 74.1555 27.992 74.5821 27.992C74.7741 27.992 74.9555 27.976 75.1261 27.944C75.3075 27.9013 75.4675 27.8373 75.6061 27.752C75.7555 27.6667 75.8728 27.5547 75.9581 27.416C76.0435 27.2773 76.0861 27.1013 76.0861 26.888C76.0861 26.536 75.9155 26.2747 75.5741 26.104C75.2435 25.9333 74.7528 25.7733 74.1021 25.624C73.8461 25.56 73.5848 25.4853 73.3181 25.4C73.0621 25.304 72.8275 25.176 72.6141 25.016C72.4008 24.856 72.2248 24.6587 72.0861 24.424C71.9581 24.1787 71.8941 23.88 71.8941 23.528C71.8941 23.1227 71.9741 22.776 72.1341 22.488C72.3048 22.1893 72.5235 21.9493 72.7901 21.768C73.0568 21.576 73.3608 21.4373 73.7021 21.352C74.0435 21.256 74.3955 21.208 74.7581 21.208C75.3021 21.208 75.8248 21.3147 76.3261 21.528C76.8381 21.7413 77.2328 22.0507 77.5101 22.456L76.4701 23.336Z" fill="#8499F0"/>
<defs>
<clipPath id="clip0">
<rect width="13.3333" height="13.3333" fill="white" transform="translate(133 17.3333)"/>
</clipPath>
<clipPath id="clip1">
<rect width="13.3333" height="13.3333" fill="white" transform="translate(133 17.3333)"/>
</clipPath>
</defs>
</svg>
